<svg width="16" height="16" viewBox="0 0 16 16" fill="none" xmlns="http://www.w3.org/2000/svg">
<path d="M6.00001 8.66699V10.667H10V8.66699H14.6667V13.3337C14.6667 13.5105 14.5964 13.68 14.4714 13.8051C14.3464 13.9301 14.1768 14.0003 14 14.0003H2.00001C1.8232 14.0003 1.65363 13.9301 1.52861 13.8051C1.40358 13.68 1.33334 13.5105 1.33334 13.3337V8.66699H6.00001ZM7.33334 7.33366H8.66668V9.33366H7.33334V7.33366ZM4.66668 3.33366V1.33366C4.66668 1.15685 4.73691 0.987279 4.86194 0.862254C4.98696 0.73723 5.15653 0.666992 5.33334 0.666992H10.6667C10.8435 0.666992 11.0131 0.73723 11.1381 0.862254C11.2631 0.987279 11.3333 1.15685 11.3333 1.33366V3.33366H14C14.1768 3.33366 14.3464 3.4039 14.4714 3.52892C14.5964 3.65395 14.6667 3.82351 14.6667 4.00033V7.33366H10V6.00033H6.00001V7.33366H1.33334V4.00033C1.33334 3.82351 1.40358 3.65395 1.52861 3.52892C1.65363 3.4039 1.8232 3.33366 2.00001 3.33366H4.66668ZM6.00001 2.00033V3.33366H10V2.00033H6.00001Z" fill="#0052CC"/>
</svg>
