<svg width="24" height="24" viewBox="0 0 24 24" fill="none" xmlns="http://www.w3.org/2000/svg">
<path d="M4.74072 20.3334C3.63615 20.3334 2.74072 19.438 2.74072 18.3334V5.66675C2.74072 4.56218 3.63615 3.66675 4.74072 3.66675H12.7778C13.8823 3.66675 14.7778 4.56218 14.7778 5.66675V20.3334" stroke="#EAAA00" stroke-width="2" stroke-linecap="round" stroke-linejoin="round"/>
<path d="M14.7778 20.3333V12H19.2593C20.3638 12 21.2593 12.8954 21.2593 14V18.3333" stroke="#EAAA00" stroke-width="2" stroke-linecap="round" stroke-linejoin="round"/>
<path d="M5.59259 9.22224C5.04031 9.22224 4.59259 8.77452 4.59259 8.22224V7.44446C4.59259 6.89217 5.04031 6.44446 5.59259 6.44446H6.37037C6.92265 6.44446 7.37037 6.89217 7.37037 7.44446V8.22224" fill="#EAAA00"/>
<path d="M5.59259 13.8519C5.04031 13.8519 4.59259 13.4042 4.59259 12.8519V12.0741C4.59259 11.5218 5.04031 11.0741 5.59259 11.0741H6.37037C6.92265 11.0741 7.37037 11.5218 7.37037 12.0741V12.8519" fill="#EAAA00"/>
<path d="M5.59259 18.4815C5.04031 18.4815 4.59259 18.0338 4.59259 17.4815V16.7037C4.59259 16.1515 5.04031 15.7037 5.59259 15.7037H6.37037C6.92265 15.7037 7.37037 16.1515 7.37037 16.7037V17.4815" fill="#EAAA00"/>
<path d="M10.2222 9.22224C9.66994 9.22224 9.22223 8.77452 9.22223 8.22224V7.44446C9.22223 6.89217 9.66994 6.44446 10.2222 6.44446H11C11.5523 6.44446 12 6.89217 12 7.44446V8.22224" fill="#EAAA00"/>
<path d="M10.2222 13.8519C9.66994 13.8519 9.22223 13.4042 9.22223 12.8519V12.0741C9.22223 11.5218 9.66994 11.0741 10.2222 11.0741H11C11.5523 11.0741 12 11.5218 12 12.0741V12.8519" fill="#EAAA00"/>
<path d="M10.2222 18.4815C9.66994 18.4815 9.22223 18.0338 9.22223 17.4815V16.7037C9.22223 16.1515 9.66994 15.7037 10.2222 15.7037H11C11.5523 15.7037 12 16.1515 12 16.7037V17.4815" fill="#EAAA00"/>
</svg>
