<svg width="65" height="64" viewBox="0 0 65 64" fill="none" xmlns="http://www.w3.org/2000/svg">
<path d="M10.8327 48H13.541H16.2493V58.8827L30.0646 48H32.4993H43.3327C46.32 48 48.7493 45.608 48.7493 42.6667V21.3333C48.7493 18.392 46.32 16 43.3327 16H10.8327C7.84539 16 5.41602 18.392 5.41602 21.3333V42.6667C5.41602 45.608 7.84539 48 10.8327 48Z" fill="#B1B3B8"/>
<path d="M13.5 27.5H41" stroke="white" stroke-width="2"/>
<path d="M14 34H32" stroke="white" stroke-width="2"/>
<path d="M54.1667 5.33337H51.4583H46.0362H24.375H21.6667C18.6794 5.33337 16.25 7.72537 16.25 10.6667H24.375H44.9204H48.75C51.7373 10.6667 54.1667 13.0587 54.1667 16V19.7707V29.3334V37.3334C57.154 37.3334 59.5833 34.9414 59.5833 32V29.3334V18.6667V13.3334V10.6667C59.5833 7.72537 57.154 5.33337 54.1667 5.33337Z" fill="#B1B3B8"/>
</svg>
