<svg width="16" height="8" viewBox="0 0 16 8" fill="none" xmlns="http://www.w3.org/2000/svg">
<path d="M11.3333 5.33334H8.43933C8.1248 6.22296 7.5059 6.97275 6.69202 7.45018C5.87814 7.92762 4.92168 8.10196 3.99168 7.9424C3.06169 7.78284 2.21804 7.29965 1.60985 6.57822C1.00166 5.8568 0.668091 4.94359 0.668091 4.00001C0.668091 3.05643 1.00166 2.14322 1.60985 1.42179C2.21804 0.70037 3.06169 0.217176 3.99168 0.057614C4.92168 -0.101948 5.87814 0.0723967 6.69202 0.549833C7.5059 1.02727 8.1248 1.77706 8.43933 2.66667H15.3333V5.33334H14V8.00001H11.3333V5.33334ZM4.66666 5.33334C5.02028 5.33334 5.35942 5.19287 5.60947 4.94282C5.85952 4.69277 5.99999 4.35363 5.99999 4.00001C5.99999 3.64639 5.85952 3.30725 5.60947 3.0572C5.35942 2.80715 5.02028 2.66667 4.66666 2.66667C4.31304 2.66667 3.9739 2.80715 3.72385 3.0572C3.4738 3.30725 3.33333 3.64639 3.33333 4.00001C3.33333 4.35363 3.4738 4.69277 3.72385 4.94282C3.9739 5.19287 4.31304 5.33334 4.66666 5.33334Z" fill="#0052CC"/>
</svg>
