<svg width="367" height="168" viewBox="0 0 367 168" fill="none" xmlns="http://www.w3.org/2000/svg">
<path d="M247.333 15H91.6667C87.9848 15 85 17.9694 85 21.6324V137.368C85 141.031 87.9848 144 91.6667 144H247.333C251.015 144 254 141.031 254 137.368V21.6324C254 17.9694 251.015 15 247.333 15Z" fill="#F2F6FB"/>
<path d="M171.407 51.5858L198.2 59.9576L226.498 75.892L228.377 72.5672L199.728 56.4348L170.931 47.437L141.892 64.4705L112.922 74.4291L114.168 78.0385L143.5 67.9554L171.407 51.5858Z" fill="#D8DEED"/>
<path d="M112.416 81.2743C109.793 81.2743 107.667 79.1601 107.667 76.5521C107.667 73.9441 109.793 71.8298 112.416 71.8298C115.039 71.8298 117.166 73.9441 117.166 76.5521C117.166 79.1601 115.039 81.2743 112.416 81.2743ZM140.914 70.4806C138.291 70.4806 136.164 68.3664 136.164 65.7584C136.164 63.1504 138.291 61.0362 140.914 61.0362C143.537 61.0362 145.664 63.1504 145.664 65.7584C145.664 68.3664 143.537 70.4806 140.914 70.4806ZM169.412 54.2902C166.789 54.2902 164.662 52.1759 164.662 49.5679C164.662 46.9599 166.789 44.8457 169.412 44.8457C172.035 44.8457 174.161 46.9599 174.161 49.5679C174.161 52.1759 172.035 54.2902 169.412 54.2902ZM197.91 62.3854C195.286 62.3854 193.16 60.2712 193.16 57.6632C193.16 55.0552 195.286 52.9409 197.91 52.9409C200.533 52.9409 202.659 55.0552 202.659 57.6632C202.659 60.2712 200.533 62.3854 197.91 62.3854ZM226.407 79.9251C223.784 79.9251 221.658 77.8109 221.658 75.2029C221.658 72.5948 223.784 70.4806 226.407 70.4806C229.031 70.4806 231.157 72.5948 231.157 75.2029C231.157 77.8109 229.031 79.9251 226.407 79.9251Z" fill="#FFCB3D"/>
<path d="M182.768 100.111V123.161C182.768 123.864 182.194 124.435 181.486 124.435H179.981C179.273 124.435 178.699 123.864 178.699 123.161V100.111C178.699 99.4082 179.273 98.8376 179.981 98.8376H181.486C182.194 98.8376 182.768 99.4079 182.768 100.111ZM174.63 104.155V123.159C174.63 123.864 174.056 124.435 173.348 124.435H171.843C171.136 124.435 170.561 123.863 170.561 123.159V104.155C170.561 103.45 171.135 102.879 171.843 102.879H173.348C174.056 102.879 174.63 103.45 174.63 104.155ZM166.492 92.0285V123.16C166.492 123.864 165.918 124.435 165.21 124.435H163.705C162.998 124.435 162.423 123.864 162.423 123.16V92.0285C162.423 91.3249 162.997 90.7544 163.705 90.7544H165.21C165.918 90.7544 166.492 91.3248 166.492 92.0285ZM158.354 100.111V123.161C158.354 123.864 157.78 124.435 157.072 124.435H155.567C154.86 124.435 154.285 123.864 154.285 123.161V100.111C154.285 99.4082 154.859 98.8376 155.567 98.8376H157.072C157.78 98.8376 158.354 99.4079 158.354 100.111ZM150.216 87.9895V123.158C150.216 123.865 149.642 124.435 148.935 124.435H147.429C146.722 124.435 146.147 123.863 146.147 123.158V87.9895C146.147 87.2827 146.721 86.7128 147.429 86.7128H148.935C149.642 86.7128 150.216 87.2844 150.216 87.9895ZM142.078 92.0285V123.16C142.078 123.864 141.505 124.435 140.797 124.435H139.291C138.584 124.435 138.009 123.864 138.009 123.16V92.0285C138.009 91.3249 138.583 90.7544 139.291 90.7544H140.797C141.504 90.7544 142.078 91.3248 142.078 92.0285ZM133.941 85.2947V123.158C133.941 123.863 133.367 124.435 132.659 124.435H131.153C130.446 124.435 129.872 123.863 129.872 123.158V85.2947C129.872 84.5897 130.445 84.0184 131.153 84.0184H132.659C133.366 84.0184 133.941 84.5898 133.941 85.2947ZM125.803 82.5967V123.162C125.803 123.866 125.229 124.435 124.521 124.435H123.015C122.308 124.435 121.734 123.865 121.734 123.162V82.5967C121.734 81.8928 122.308 81.324 123.015 81.324H124.521C125.228 81.324 125.803 81.8938 125.803 82.5967ZM117.665 92.0285V123.16C117.665 123.864 117.091 124.435 116.383 124.435H114.878C114.17 124.435 113.596 123.864 113.596 123.16V92.0285C113.596 91.3249 114.17 90.7544 114.878 90.7544H116.383C117.09 90.7544 117.665 91.3248 117.665 92.0285ZM231.596 100.111V123.161C231.596 123.864 231.022 124.435 230.314 124.435H228.809C228.101 124.435 227.527 123.864 227.527 123.161V100.111C227.527 99.4082 228.101 98.8376 228.809 98.8376H230.314C231.021 98.8376 231.596 99.4079 231.596 100.111ZM223.458 87.9895V123.158C223.458 123.865 222.884 124.435 222.176 124.435H220.671C219.963 124.435 219.389 123.863 219.389 123.158V87.9895C219.389 87.2827 219.963 86.7128 220.671 86.7128H222.176C222.883 86.7128 223.458 87.2844 223.458 87.9895ZM215.32 92.0285V123.16C215.32 123.864 214.746 124.435 214.038 124.435H212.533C211.825 124.435 211.251 123.864 211.251 123.16V92.0285C211.251 91.3249 211.825 90.7544 212.533 90.7544H214.038C214.745 90.7544 215.32 91.3248 215.32 92.0285ZM207.182 85.2947V123.158C207.182 123.863 206.608 124.435 205.9 124.435H204.395C203.687 124.435 203.113 123.863 203.113 123.158V85.2947C203.113 84.5897 203.687 84.0184 204.395 84.0184H205.9C206.608 84.0184 207.182 84.5898 207.182 85.2947ZM199.044 82.5967V123.162C199.044 123.866 198.47 124.435 197.762 124.435H196.257C195.549 124.435 194.975 123.865 194.975 123.162V82.5967C194.975 81.8928 195.549 81.324 196.257 81.324H197.762C198.47 81.324 199.044 81.8938 199.044 82.5967ZM190.906 92.0285V123.16C190.906 123.864 190.332 124.435 189.624 124.435H188.119C187.411 124.435 186.837 123.864 186.837 123.16V92.0285C186.837 91.3249 187.411 90.7544 188.119 90.7544H189.624C190.332 90.7544 190.906 91.3248 190.906 92.0285Z" fill="#D8DEED"/>
<path d="M85 21.6338C85 17.9701 87.987 15 91.664 15H247.336C251.016 15 254 17.9703 254 21.6338V29.5913H85V21.6338Z" fill="#E1E5F0"/>
<path d="M94.8332 25.6118C96.5821 25.6118 97.9998 24.2013 97.9998 22.4614C97.9998 20.7215 96.5821 19.311 94.8332 19.311C93.0843 19.311 91.6665 20.7215 91.6665 22.4614C91.6665 24.2013 93.0843 25.6118 94.8332 25.6118Z" fill="#FF5645"/>
<path d="M105.167 25.6118C106.916 25.6118 108.333 24.2013 108.333 22.4614C108.333 20.7215 106.916 19.311 105.167 19.311C103.418 19.311 102 20.7215 102 22.4614C102 24.2013 103.418 25.6118 105.167 25.6118Z" fill="#FFCB3D"/>
<path d="M115.833 25.6118C117.582 25.6118 119 24.2013 119 22.4614C119 20.7215 117.582 19.311 115.833 19.311C114.084 19.311 112.667 20.7215 112.667 22.4614C112.667 24.2013 114.084 25.6118 115.833 25.6118Z" fill="#3ABF7C"/>
<path d="M78.0769 80H1.92308C1.41328 80 1 80.4074 1 80.91V138.09C1 138.593 1.41328 139 1.92308 139H78.0769C78.5867 139 79 138.593 79 138.09V80.91C79 80.4074 78.5867 80 78.0769 80Z" fill="#E1E5F0"/>
<path d="M34.3848 100.476H45.6155V104.874C45.6155 105.209 45.3407 105.481 44.9997 105.481H35.0006C34.6605 105.481 34.3848 105.208 34.3848 104.874V100.476Z" fill="#D8DEED"/>
<path d="M34.3848 91.8303C34.3848 91.4952 34.6596 91.2236 35.0006 91.2236H44.9997C45.3398 91.2236 45.6155 91.4942 45.6155 91.8303V101.537H34.3848V91.8303Z" fill="#F2F6FB"/>
<path d="M16.3848 122.62H27.6155V127.019C27.6155 127.353 27.3407 127.625 26.9997 127.625H17.0006C16.6605 127.625 16.3848 127.352 16.3848 127.019V122.62Z" fill="#D8DEED"/>
<path d="M16.3848 113.976C16.3848 113.64 16.6596 113.368 17.0006 113.368H26.9997C27.3398 113.368 27.6155 113.64 27.6155 113.976V123.833H16.3848V113.976Z" fill="#F2F6FB"/>
<path d="M34.3848 122.62H45.6155V127.019C45.6155 127.353 45.3407 127.625 44.9997 127.625H35.0006C34.6605 127.625 34.3848 127.352 34.3848 127.019V122.62Z" fill="#D8DEED"/>
<path d="M34.3848 113.976C34.3848 113.64 34.6596 113.368 35.0006 113.368H44.9997C45.3398 113.368 45.6155 113.64 45.6155 113.976V123.833H34.3848V113.976Z" fill="#F2F6FB"/>
<path d="M52.5386 122.62H63.7693V127.019C63.7693 127.353 63.4945 127.625 63.1535 127.625H53.1544C52.8143 127.625 52.5386 127.352 52.5386 127.019V122.62Z" fill="#D8DEED"/>
<path d="M52.5386 113.976C52.5386 113.64 52.8134 113.368 53.1544 113.368H63.1535C63.4936 113.368 63.7693 113.64 63.7693 113.976V123.833H52.5386V113.976Z" fill="#F2F6FB"/>
<path d="M57.923 113.368V112.74V110.181C57.923 110.015 57.7848 109.879 57.6144 109.879H22.8469C22.6772 109.879 22.5383 110.015 22.5383 110.183V113.368H21.4614V109.576C21.4614 109.157 21.8061 108.817 22.2304 108.817H58.2309C58.6556 108.817 58.9999 109.157 58.9999 109.577V111.018V113.368H57.923Z" fill="#D8DEED"/>
<path d="M40.5383 105.481H39.4614V113.368H40.5383V105.481Z" fill="#D8DEED"/>
<path d="M2.6975 19H67.3025C68.7923 19 70 20.197 70 21.6735V68.3265C70 69.803 68.7923 71 67.3025 71H2.6975C1.20771 71 0 69.803 0 68.3265V21.6735C0 20.197 1.20771 19 2.6975 19Z" fill="#D8DEED"/>
<path d="M41.6866 32.5796H28.2007C27.5236 32.5796 26.9746 33.1237 26.9746 33.7948V33.8664C26.9746 34.5375 27.5236 35.0816 28.2007 35.0816H41.6866C42.3638 35.0816 42.9128 34.5375 42.9128 33.8664V33.7948C42.9128 33.1237 42.3638 32.5796 41.6866 32.5796Z" fill="#F2F6FB"/>
<path d="M49.5768 28.3574H20.3106C19.6334 28.3574 19.0845 28.9015 19.0845 29.5727V29.8006C19.0845 30.4717 19.6334 31.0158 20.3106 31.0158H49.5768C50.254 31.0158 50.803 30.4717 50.803 29.8006V29.5727C50.803 28.9015 50.254 28.3574 49.5768 28.3574Z" fill="#F2F6FB"/>
<path d="M15.2184 47.2614L12.8072 48.525C12.6096 48.6286 12.4798 48.5362 12.5175 48.317L12.9783 45.639L11.0264 43.7424C10.8672 43.5877 10.9179 43.4362 11.1397 43.4041L13.8339 43.0138L15.0403 40.5773C15.1387 40.3786 15.2979 40.3778 15.3966 40.5773L16.603 43.0138L19.2972 43.4041C19.519 43.4362 19.5687 43.5887 19.4105 43.7424L17.4586 45.639L17.9194 48.317C17.957 48.5354 17.8266 48.6282 17.6297 48.525L15.2184 47.2614Z" fill="#F2F6FB"/>
<path d="M25.0021 47.4179L22.5909 48.6815C22.3933 48.7851 22.2635 48.6927 22.3012 48.4735L22.762 45.7955L20.8101 43.8989C20.6509 43.7442 20.7016 43.5927 20.9233 43.5606L23.6176 43.1703L24.824 40.7338C24.9224 40.5351 25.0816 40.5343 25.1803 40.7338L26.3866 43.1703L29.0809 43.5606C29.3027 43.5927 29.3524 43.7452 29.1942 43.8989L27.2423 45.7955L27.7031 48.4735C27.7407 48.6919 27.6103 48.7847 27.4134 48.6815L25.0021 47.4179Z" fill="#F2F6FB"/>
<path d="M34.944 47.4179L32.5328 48.6815C32.3352 48.7851 32.2054 48.6927 32.2431 48.4735L32.7039 45.7955L30.752 43.8989C30.5928 43.7442 30.6435 43.5927 30.8652 43.5606L33.5595 43.1703L34.7659 40.7338C34.8643 40.5351 35.0234 40.5343 35.1222 40.7338L36.3285 43.1703L39.0228 43.5606C39.2446 43.5927 39.2943 43.7452 39.1361 43.8989L37.1842 45.7955L37.645 48.4735C37.6826 48.6919 37.5522 48.7847 37.3553 48.6815L34.944 47.4179Z" fill="#F2F6FB"/>
<path d="M44.7277 47.4179L42.3165 48.6815C42.1189 48.7851 41.9891 48.6927 42.0268 48.4735L42.4876 45.7955L40.5357 43.8989C40.3764 43.7442 40.4272 43.5927 40.6489 43.5606L43.3432 43.1703L44.5496 40.7338C44.648 40.5351 44.8071 40.5343 44.9059 40.7338L46.1122 43.1703L48.8065 43.5606C49.0283 43.5927 49.078 43.7452 48.9198 43.8989L46.9679 45.7955L47.4287 48.4735C47.4663 48.6919 47.3359 48.7847 47.139 48.6815L44.7277 47.4179Z" fill="#F2F6FB"/>
<path d="M54.4328 47.4177L51.9685 48.6843C51.7702 48.7862 51.6404 48.6926 51.6789 48.4733L52.1487 45.7953L50.1562 43.8965C49.9951 43.743 50.0433 43.5932 50.2644 43.5618L53.0211 43.1702L54.2518 40.7322C54.3518 40.5343 54.5137 40.5342 54.6137 40.7322L55.8444 43.1702L58.6012 43.5618C58.822 43.5932 58.87 43.7435 58.7094 43.8965L56.7169 45.7953L57.1867 48.4733C57.225 48.6918 57.0962 48.7867 56.8971 48.6843L54.4328 47.4177Z" fill="#F2F6FB"/>
<path d="M29.3156 56.5051H40.5717C41.1705 56.5051 41.5481 56.5982 41.8778 56.7729C42.2075 56.9477 42.4662 57.2041 42.6425 57.5309C42.8189 57.8577 42.9128 58.2318 42.9128 58.8253V59.189C42.9128 59.7824 42.8189 60.1566 42.6425 60.4834C42.4662 60.8101 42.2075 61.0666 41.8778 61.2413C41.5481 61.4161 41.1705 61.5092 40.5717 61.5092H29.3156C28.7168 61.5092 28.3393 61.4161 28.0096 61.2413C27.6799 61.0666 27.4212 60.8101 27.2448 60.4834C27.0685 60.1566 26.9746 59.7824 26.9746 59.189V58.8253C26.9746 58.2318 27.0685 57.8577 27.2448 57.5309C27.4212 57.2041 27.6799 56.9477 28.0096 56.7729C28.3393 56.5982 28.7168 56.5051 29.3156 56.5051Z" fill="#F2F6FB"/>
<path d="M346.806 87H264.194C261.878 87 260 88.8645 260 91.1645V163.835C260 166.135 261.878 168 264.194 168H346.806C349.122 168 351 166.135 351 163.835V91.1645C351 88.8645 349.122 87 346.806 87Z" fill="#E1E5F0"/>
<path d="M309.379 143.637H279.186C278.433 143.637 277.823 144.243 277.823 144.991V145.407C277.823 146.155 278.433 146.761 279.186 146.761H309.379C310.132 146.761 310.742 146.155 310.742 145.407V144.991C310.742 144.243 310.132 143.637 309.379 143.637Z" fill="#D8DEED"/>
<path d="M332.024 152.383H279.186C278.433 152.383 277.823 152.989 277.823 153.737V154.361C277.823 155.109 278.433 155.715 279.186 155.715H332.024C332.777 155.715 333.387 155.109 333.387 154.361V153.737C333.387 152.989 332.777 152.383 332.024 152.383Z" fill="#F2F6FB"/>
<path d="M332.025 143.637H315.041C314.288 143.637 313.678 144.243 313.678 144.991V145.407C313.678 146.155 314.288 146.761 315.041 146.761H332.025C332.777 146.761 333.387 146.155 333.387 145.407V144.991C333.387 144.243 332.777 143.637 332.025 143.637Z" fill="#D8DEED"/>
<path d="M305.71 136.974C316.248 136.974 324.79 128.491 324.79 118.026C324.79 107.561 316.248 99.0771 305.71 99.0771C295.172 99.0771 286.629 107.561 286.629 118.026C286.629 128.491 295.172 136.974 305.71 136.974Z" fill="#D8DEED"/>
<path d="M312.034 123.512C312.66 123.858 313.865 124.571 315.232 125.565C316.901 126.818 315.557 129.302 313.494 128.783L310.598 128.049C309.763 127.833 309.184 127.163 309.138 126.364L309.068 125.176C308.999 124.117 309.902 123.231 311.038 123.231C311.385 123.253 311.733 123.339 312.034 123.512Z" fill="#E1E5F0"/>
<path fill-rule="evenodd" clip-rule="evenodd" d="M308.409 121.062L310.323 120.733L310.527 121.974L310.504 123.526L311.161 129.268C311.161 129.268 305.453 131.773 304.547 130.643L304.005 126.042C303.918 126.071 303.83 126.099 303.739 126.129C301.786 126.764 301.899 126.718 301.763 126.764C300.31 127.081 299.083 126.968 298.856 126.922C296.971 126.673 294.949 123.068 294.268 118.012C294.2 117.603 294.2 117.195 294.177 116.787L294.245 112.729C294.245 111.822 294.495 110.937 294.949 110.167C294.995 110.076 295.04 110.008 295.086 109.94C295.245 109.69 295.404 109.486 295.563 109.305C296.176 108.579 296.903 108.058 297.652 107.695C299.424 106.97 301.422 106.902 302.535 107.06C302.694 107.083 303.194 107.151 303.898 107.242C304.557 107.4 305.193 107.491 305.851 107.514C306.215 107.536 306.487 107.854 306.487 108.217L306.26 114.021C306.237 114.565 306.513 114.338 306.968 114.021C306.968 114.021 307.305 114.044 307.305 114.021C307.373 113.976 308.077 113.467 308.69 113.445C309.781 113.422 310.689 115.109 311.03 116.243C311.393 117.422 310.962 118.624 310.235 119.372C309.712 119.893 309.099 120.12 308.69 120.234C308.486 120.256 308.282 120.438 308.236 120.642C308.236 120.642 308.236 120.664 308.213 120.687L308.409 121.062Z" fill="white"/>
<path d="M308.095 120.107L308.109 120.108C308.402 120.041 309.324 119.883 310.043 119.165C310.763 118.447 311.19 117.257 310.808 116.09C310.471 114.968 309.391 114.047 308.312 114.07C307.704 114.092 307.21 114.384 307.142 114.429C306.355 114.945 305.995 115.663 305.995 115.663L305.803 116.096C305.734 115.988 305.667 115.886 305.602 115.791C304.006 114.031 302.409 112.294 300.79 110.534C299.878 110.76 298.373 110.963 296.662 110.557C296.115 110.422 295.531 110.108 295.121 109.905C295.28 109.657 295.485 109.357 295.645 109.176C296.261 108.454 296.989 107.975 297.742 107.614C299.52 106.892 301.588 106.902 302.706 107.06C302.865 107.082 303.367 107.15 304.074 107.24C304.279 107.263 304.485 107.285 304.735 107.308C305.328 107.353 305.785 107.398 306.058 107.421C309.525 107.646 310.87 107.263 312.603 108.21C312.923 108.391 313.653 108.82 314.268 109.609C315.506 111.195 315.629 113.076 315.543 114.362C315.917 115.988 316.596 120.024 314.784 122.299C312.477 125.196 312.754 126.146 312.754 126.146L308.854 123.493L309.431 122.621C309.171 122.112 308.806 121.409 308.384 120.642C308.29 120.467 308.193 120.288 308.095 120.107Z" fill="#E1E5F0"/>
<path d="M308.239 120.108C308.239 120.108 307.875 123.898 310.906 125.624L312 125.938" fill="#E1E5F0"/>
<path d="M295.996 117.651C296.062 118.042 296.127 118.673 295.952 118.955C295.667 119.412 294.9 118.368 295.031 117.629C295.097 117.325 295.25 117.195 295.426 117.195C295.711 117.173 295.952 117.368 295.996 117.651ZM300.782 117.194C300.835 117.629 300.763 118.128 300.622 118.442C300.394 118.949 299.745 118.083 299.851 117.261C299.903 116.923 300.026 116.778 300.166 116.778C300.394 116.754 300.747 116.88 300.782 117.194Z" fill="#E1E5F0"/>
<path fill-rule="evenodd" clip-rule="evenodd" d="M297.11 117.61C297.225 117.62 297.31 117.72 297.301 117.835L297.113 120.025C297.114 120.032 297.115 120.041 297.119 120.051C297.124 120.064 297.131 120.077 297.138 120.087C297.143 120.093 297.146 120.096 297.149 120.099C297.149 120.099 297.15 120.099 297.151 120.099C297.312 120.112 297.466 120.109 297.678 120.104C297.811 120.101 297.966 120.098 298.161 120.098C298.277 120.098 298.371 120.191 298.371 120.306C298.371 120.421 298.277 120.515 298.161 120.515C297.994 120.515 297.849 120.517 297.717 120.52C297.488 120.525 297.302 120.528 297.124 120.514C296.977 120.51 296.867 120.422 296.804 120.338C296.738 120.251 296.693 120.136 296.693 120.02C296.693 120.014 296.694 120.008 296.694 120.002L296.883 117.8C296.893 117.685 296.994 117.6 297.11 117.61Z" fill="#E1E5F0"/>
<path d="M298.681 121.773C298.821 121.727 299.161 121.568 299.2 121.34C299.2 121.294 299.22 121.226 299.2 121.203C299.121 121.089 298.861 121.18 298.501 121.249C297.862 121.363 297.322 121.363 297.322 121.363C297.322 121.363 297.502 121.75 297.602 121.864C297.822 122.137 298.461 121.864 298.681 121.773Z" fill="#E1E5F0"/>
<path fill-rule="evenodd" clip-rule="evenodd" d="M298.371 117.505C298.371 116.075 299.584 114.902 301.097 114.902C302.24 114.902 303.213 115.572 303.619 116.517C303.611 116.55 303.611 116.584 303.619 116.619C303.632 116.669 303.662 116.711 303.702 116.739C303.78 116.981 303.823 117.239 303.823 117.505C303.823 118.936 302.609 120.108 301.097 120.108C299.584 120.108 298.371 118.936 298.371 117.505ZM304.131 116.706C304.203 116.96 304.242 117.228 304.242 117.505C304.242 119.18 302.827 120.524 301.097 120.524C299.5 120.524 298.171 119.379 297.976 117.886L297.112 117.957C297.113 117.98 297.113 118.003 297.113 118.026C297.113 119.743 295.759 121.149 294.073 121.149C292.386 121.149 291.032 119.743 291.032 118.026C291.032 116.308 292.386 114.902 294.073 114.902C295.597 114.902 296.851 116.052 297.077 117.542L297.952 117.47C297.972 115.812 299.379 114.486 301.097 114.486C302.388 114.486 303.505 115.236 303.987 116.313L305.449 115.95C305.562 115.922 305.675 115.99 305.703 116.101C305.732 116.213 305.663 116.326 305.551 116.354L304.131 116.706ZM291.452 118.026C291.452 116.523 292.632 115.319 294.073 115.319C295.513 115.319 296.694 116.523 296.694 118.026C296.694 119.528 295.513 120.733 294.073 120.733C292.632 120.733 291.452 119.528 291.452 118.026Z" fill="#E1E5F0"/>
<g clip-path="url(#clip0)">
<path d="M360.422 80.7049H266.966C263.296 80.7049 260.299 77.4911 260.299 73.5559V7.54254C260.299 3.60732 263.296 0.393555 266.966 0.393555H360.422C364.091 0.393555 367.088 3.60732 367.088 7.54254V73.5231C367.088 77.4911 364.091 80.7049 360.422 80.7049Z" fill="#E1E5F0"/>
<path d="M291.024 40.396C295.919 40.396 299.887 36.4805 299.887 31.6505C299.887 26.8205 295.919 22.905 291.024 22.905C286.128 22.905 282.16 26.8205 282.16 31.6505C282.16 36.4805 286.128 40.396 291.024 40.396Z" fill="#F2F6FB"/>
<path d="M312.972 40.396C317.868 40.396 321.836 36.4805 321.836 31.6505C321.836 26.8205 317.868 22.905 312.972 22.905C308.077 22.905 304.108 26.8205 304.108 31.6505C304.108 36.4805 308.077 40.396 312.972 40.396Z" fill="#F2F6FB"/>
<path d="M334.921 40.396C339.816 40.396 343.785 36.4805 343.785 31.6505C343.785 26.8205 339.816 22.905 334.921 22.905C330.026 22.905 326.057 26.8205 326.057 31.6505C326.057 36.4805 330.026 40.396 334.921 40.396Z" fill="#F2F6FB"/>
<path d="M344.049 54.5552H283.585C282.914 54.5552 282.371 55.0912 282.371 55.7525V56.6895C282.371 57.3507 282.914 57.8868 283.585 57.8868H344.049C344.719 57.8868 345.263 57.3507 345.263 56.6895V55.7525C345.263 55.0912 344.719 54.5552 344.049 54.5552Z" fill="#D8DEED"/>
<path d="M344.049 47.8921H283.585C282.914 47.8921 282.371 48.4281 282.371 49.0894V50.2346C282.371 50.8959 282.914 51.4319 283.585 51.4319H344.049C344.719 51.4319 345.263 50.8959 345.263 50.2346V49.0894C345.263 48.4281 344.719 47.8921 344.049 47.8921Z" fill="#D8DEED"/>
</g>
<defs>
<clipPath id="clip0">
<rect width="107" height="81" fill="white" transform="translate(260)"/>
</clipPath>
</defs>
</svg>
