<svg width="68" height="28" viewBox="0 0 68 28" fill="none" xmlns="http://www.w3.org/2000/svg">
<path d="M51.796 0.824219V13.9059L51.6302 14.0437L51.4643 14.1816L51.3054 14.3263L51.1533 14.4711L51.0082 14.6158L50.8631 14.7674L50.7249 14.9191L50.5867 15.0707V0.824219H36.0535V12.7342H34.851V0.824219H20.3178V12.7549H19.1153V0.824219H4.5821V14.4228L0.871048 26.7532H4.1329L5.77074 21.2945H6.24067L8.94966 26.7532H12.8888L10.2627 21.2945H16.2197L14.5681 26.7532H18.1271L19.758 21.3083H20.5458V21.2944H21.6654H21.7552H28.4793L26.9037 26.7394H30.4972L32.0245 21.2944H33.6416L33.683 26.7394H36.6961L40.1584 21.2944H42.4251L41.2503 26.7394H44.7886L45.9426 21.2944H47.9882L47.9744 21.6046L47.9817 21.9217L47.9955 22.2249L48.0231 22.5282L48.0439 22.6729L48.0646 22.8177L48.0922 22.9624L48.1198 23.1071L48.1543 23.2519L48.1889 23.3897L48.2303 23.5276L48.2717 23.6654L48.3201 23.8033L48.3686 23.9342L48.4238 24.0652L48.4791 24.1892L48.5414 24.3202L48.6036 24.4442L48.6727 24.5614L48.7419 24.6855L48.8179 24.8027L48.9008 24.9129L48.9838 25.0301L49.0736 25.1335L49.1634 25.2438L49.2533 25.3471L49.3569 25.4505L49.4606 25.547L49.5919 25.6573L49.7232 25.7676L49.8614 25.871L50.0065 25.9675L50.1517 26.064L50.2968 26.1536L50.4488 26.2293L50.6078 26.312L50.7598 26.381L50.9188 26.4499L51.0777 26.5119L51.2436 26.574L51.4094 26.6291L51.5753 26.6774L51.7411 26.7256L51.907 26.767L52.2387 26.8428L52.5773 26.8979L52.909 26.9462L53.2407 26.9875L53.5655 27.0151L53.8834 27.0289L54.1944 27.0427H54.4916L54.8924 27.0362L55.2932 27.0296L55.701 27.0089L56.1087 26.9883L56.5164 26.9538L56.9242 26.9193L57.3319 26.8779L57.7396 26.8297L58.1543 26.7745L58.5689 26.7124L58.9835 26.6435L59.3982 26.5746L59.8128 26.4988L60.2275 26.4161L60.6421 26.3334L61.0637 26.2369L62.2938 21.2951H66.3296V0.824856H51.7964L51.796 0.824219ZM5.92968 20.7845L5.9504 20.7087L5.99882 20.7845H5.92968ZM18.5901 13.451L18.3828 14.1471L16.4478 20.557L16.3717 20.7845H10.0139L9.52323 19.7368L16.3717 12.7549H11.9696L6.61383 18.51L8.34841 12.7549H5.10038V1.34115H18.5901V13.451H18.5901ZM22.3426 18.8684L22.239 18.8749L22.1422 18.8815L22.0385 18.888H21.928H21.7828H21.6585L21.541 18.8945H21.4304L20.5666 18.888L20.9674 17.413L21.154 16.6824L21.6101 14.9663H21.7552H21.9072L22.0524 14.9597H22.1906H22.8609L23.2686 14.9663L23.6418 14.9801L23.8077 14.9866L23.9666 15.0004L24.1187 15.0211L24.2569 15.0418L24.3813 15.0625L24.4988 15.097L24.6093 15.1315L24.7061 15.1728L24.789 15.2142L24.865 15.2694L24.9342 15.3246L24.9894 15.3935L25.0239 15.4487L25.0516 15.5038L25.0792 15.5659L25.0999 15.6348L25.1137 15.7106L25.121 15.7864V15.8691V15.9587L25.1137 16.0552L25.1072 16.1516L25.0865 16.2619L25.0658 16.3722L25.0035 16.6065L24.9275 16.8685L24.8515 17.089L24.7685 17.3027L24.6787 17.5025L24.582 17.6886L24.5335 17.7714L24.4851 17.8541L24.4298 17.9368L24.3676 18.0125L24.3053 18.0883L24.2431 18.1572L24.174 18.2262L24.1048 18.2882L24.0288 18.3434L23.9528 18.4054L23.8698 18.4537L23.78 18.5088L23.6902 18.5571L23.5934 18.5984L23.4967 18.6398L23.393 18.6743L23.2824 18.7157L23.1649 18.7432L23.0406 18.7708L22.9162 18.7983L22.7779 18.819L22.6397 18.8397L22.4946 18.8535L22.3426 18.8673L22.3426 18.8684ZM32.1696 20.7845L33.5863 15.753L33.6417 20.7845H32.1697H32.1696ZM34.3258 12.7342H30.9534L28.6314 20.7845H25.0516L25.2175 20.7155L25.3833 20.6466L25.5423 20.5777L25.7012 20.5019L25.8532 20.4261L25.9984 20.3365L26.1435 20.2538L26.2817 20.1642L26.4199 20.0677L26.5512 19.9712L26.6756 19.8748L26.8 19.7645L26.9175 19.6611L27.0281 19.5439L27.1386 19.4336L27.2423 19.3096L27.346 19.1924L27.4427 19.0615L27.5326 18.9374L27.6224 18.7995L27.7053 18.6617L27.7814 18.5239L27.8574 18.3791L27.9265 18.2275L27.9957 18.0758L28.0579 17.9242L28.1131 17.7657L28.1685 17.6003L28.2099 17.4349L28.2583 17.2694L28.2928 17.0902L28.3274 16.9179L28.3758 16.6422L28.4172 16.3803L28.4448 16.1322L28.4655 15.8979L28.4729 15.6635L28.4655 15.4499L28.459 15.2362L28.4314 15.0363L28.4038 14.8502L28.3554 14.6641L28.307 14.4918L28.2378 14.3264L28.1618 14.1679L28.0789 14.0094L27.9821 13.8646L27.8715 13.7268L27.7817 13.6303L27.6919 13.5338L27.5951 13.4511L27.4915 13.3753L27.3809 13.2995L27.2703 13.2306L27.1528 13.1686L27.0354 13.1134L26.911 13.0582L26.7866 13.0168L26.6553 12.9755L26.524 12.9341L26.3857 12.8996L26.2475 12.8721L26.1093 12.8445L25.9642 12.8238L25.667 12.7825L25.3699 12.7618L25.0658 12.7411L24.7548 12.7346H24.1329H23.5178H23.3243H22.9788H22.5503H22.0735H21.6104H21.2165H20.9401H20.8365V1.34152H34.3261V12.7346L34.3258 12.7342ZM42.5219 20.7845H40.497L43.5654 15.9598L42.5219 20.7845ZM50.0615 12.9616L50.0541 15.753L49.8814 15.9943L49.7224 16.2424L49.5635 16.4905L49.4184 16.7386L49.2801 16.9868L49.1419 17.2418L49.0244 17.4899L48.907 17.738L48.7964 17.9793L48.6997 18.2274L48.6029 18.4686L48.52 18.703L48.4439 18.9373L48.3748 19.1647L48.3126 19.3853L48.2572 19.6059L48.2227 19.7506L48.1882 19.9022L48.1537 20.047L48.126 20.1986L48.0984 20.3433L48.0777 20.4881L48.057 20.6328L48.0432 20.7845H46.0598L47.7529 12.7549L42.0447 12.7483L36.9377 20.7848H36.5645V1.3415H50.0611V12.962L50.0615 12.9616ZM57.8429 24.0721L57.5596 24.1203L57.2693 24.1617L56.9791 24.2031L56.6957 24.2376L56.4124 24.2651L56.1291 24.2858L55.8526 24.2996H55.5762H55.3965L55.2168 24.2931L55.0441 24.2792L54.8713 24.2586L54.7054 24.231L54.5465 24.2035L54.3876 24.169L54.2355 24.1276L54.0904 24.0794L53.9453 24.0311L53.8071 23.9691L53.6758 23.907L53.5445 23.8313L53.4201 23.7555L53.3026 23.6728L53.192 23.5901L53.0814 23.4936L52.9847 23.3902L52.8879 23.2868L52.7981 23.1696L52.7152 23.0525L52.6391 22.9215L52.57 22.7906L52.5009 22.6527L52.4455 22.508L52.3971 22.3494L52.3557 22.1909L52.3143 22.0255L52.2866 21.8532L52.2659 21.674L52.2521 21.4879L52.2448 21.2949H58.5335L57.8425 24.0725L57.8429 24.0721ZM65.8179 20.7845H62.4178L62.9776 18.5375H56.1636L55.6038 20.7845H52.3074V20.3227L52.3489 20.1297L52.3834 19.9367L52.4248 19.7299L52.4663 19.5231L52.5285 19.2957L52.5907 19.0683L52.6598 18.8408L52.7359 18.6202L52.8188 18.3997L52.9086 18.1791L53.0054 17.9655L53.1021 17.7518L53.2127 17.5382L53.3233 17.3383L53.4408 17.1315L53.5721 16.9385L53.7034 16.7455L53.8347 16.5594L53.9798 16.3802L54.1318 16.2079L54.2908 16.0425L54.4497 15.8909L54.6225 15.7393L54.7953 15.5945L54.975 15.4636L55.1685 15.3395L55.362 15.2292L55.5624 15.1258L55.7697 15.0293L55.9839 14.9466L56.2051 14.8777L56.4331 14.8225L56.6681 14.7743L56.91 14.7398L57.1587 14.7191L57.4144 14.7126L57.6148 14.7191L57.8153 14.7329L58.0157 14.7605L58.2092 14.8019L58.3059 14.8294L58.3958 14.857L58.4856 14.8845L58.5685 14.9259L58.6515 14.9604L58.7344 15.0086L58.8104 15.0568L58.8865 15.1051L58.9556 15.1671L59.0247 15.2292L59.087 15.2912L59.1492 15.367L59.2045 15.4359L59.2529 15.5186L59.2943 15.6082L59.3358 15.6978L59.3703 15.7943L59.3979 15.8977L59.4186 16.0011L59.4394 16.1182L59.4467 16.2354V16.3595V16.4904L59.4329 16.6283H63.4964L63.5586 16.3457L63.6139 16.0217L63.6415 15.8494L63.6553 15.6633L63.6691 15.4773V15.2843L63.6627 15.0844L63.6419 14.8776L63.6212 14.7811L63.6074 14.6777L63.5798 14.5744L63.5522 14.471L63.5176 14.3607L63.4831 14.2573L63.4417 14.1539L63.3933 14.0505L63.3449 13.9471L63.2826 13.8438L63.2204 13.7404L63.1513 13.637L63.0683 13.5267L62.9785 13.4233L62.8886 13.3199L62.7919 13.2235L62.6882 13.127L62.5777 13.0374L62.4671 12.9547L62.3496 12.8719L62.2252 12.7892L62.1008 12.7203L61.9695 12.6514L61.8313 12.5825L61.6931 12.5205L61.548 12.4584L61.3959 12.4032L61.2439 12.348L61.0919 12.2998L60.926 12.2584L60.7671 12.2171L60.5943 12.1757L60.4215 12.1412L60.2488 12.1067L60.0691 12.0792L59.8825 12.0585L59.5024 12.0171L59.1154 11.9826L58.7077 11.9688L58.293 11.9623L57.982 11.9688L57.6572 11.9754L57.3186 11.996L56.9662 12.0236L56.5999 12.0649L56.2267 12.1132L55.8466 12.1752L55.4596 12.2579L55.2661 12.2993L55.0657 12.3475L54.8722 12.4027L54.6718 12.4579L54.4714 12.5199L54.271 12.5889L54.0706 12.6578L53.8771 12.7335L53.6767 12.8163L53.4763 12.9059L53.2828 12.9955L53.0824 13.0919L52.8889 13.1953L52.6954 13.3056L52.5019 13.4159L52.3084 13.54V1.3405H65.8188V20.7838L65.8179 20.7845Z" fill="#00338D"/>
</svg>
