<svg width="16" height="16" viewBox="0 0 16 16" fill="none" xmlns="http://www.w3.org/2000/svg">
<path d="M13.3333 14.667H2.66666V13.3337C2.66666 12.4496 3.01785 11.6018 3.64297 10.9766C4.26809 10.3515 5.11593 10.0003 5.99999 10.0003H9.99999C10.884 10.0003 11.7319 10.3515 12.357 10.9766C12.9821 11.6018 13.3333 12.4496 13.3333 13.3337V14.667ZM7.99999 8.66699C7.4747 8.66699 6.95456 8.56353 6.46926 8.36251C5.98395 8.16149 5.543 7.86685 5.17156 7.49542C4.80013 7.12398 4.50549 6.68303 4.30447 6.19773C4.10345 5.71242 3.99999 5.19228 3.99999 4.66699C3.99999 4.1417 4.10345 3.62156 4.30447 3.13626C4.50549 2.65096 4.80013 2.21 5.17156 1.83857C5.543 1.46713 5.98395 1.17249 6.46926 0.971474C6.95456 0.770455 7.4747 0.666992 7.99999 0.666992C9.06086 0.666992 10.0783 1.08842 10.8284 1.83857C11.5786 2.58871 12 3.60613 12 4.66699C12 5.72786 11.5786 6.74527 10.8284 7.49542C10.0783 8.24556 9.06086 8.66699 7.99999 8.66699Z" fill="#0052CC"/>
</svg>
